<svg xmlns="http://www.w3.org/2000/svg" width="24" height="24" viewBox="0 0 24 24"><path d="M12 5.36h3.27a4.18 4.18 0 011.51.28 2.41 2.41 0 01.93.6 2.48 2.48 0 01.6.93 4.18 4.18 0 01.28 1.51c0 .85.05 1.11.05 3.27s0 2.42-.05 3.27a4.18 4.18 0 01-.28 1.51 2.62 2.62 0 01-1.53 1.53 4.18 4.18 0 01-1.51.28c-.85 0-1.11.05-3.27.05s-2.42 0-3.27-.05a4.18 4.18 0 01-1.51-.28 2.62 2.62 0 01-1.53-1.53 4.18 4.18 0 01-.28-1.51V8.68a4.18 4.18 0 01.28-1.51 2.48 2.48 0 01.6-.93 2.41 2.41 0 01.93-.6 4.18 4.18 0 011.51-.28H12m0-1.46c-2.2 0-2.48 0-3.34.05a6 6 0 00-2 .38 4.12 4.12 0 00-2.33 2.36 5.77 5.77 0 00-.38 2c0 .86-.05 1.14-.05 3.34s0 2.48.05 3.34a5.77 5.77 0 00.38 2 4.12 4.12 0 002.36 2.36 5.77 5.77 0 002 .38c.86 0 1.14.05 3.34.05s2.48 0 3.34-.05a5.77 5.77 0 002-.38 4.12 4.12 0 002.36-2.36 6 6 0 00.38-2c0-.86.05-1.14.05-3.34s0-2.48-.05-3.34a6 6 0 00-.38-2 4.12 4.12 0 00-2.36-2.36 6 6 0 00-2-.38c-.86 0-1.14-.05-3.34-.05z" fill="#ffffff"></path><path d="M12 7.84A4.16 4.16 0 1016.16 12 4.16 4.16 0 0012 7.84zm0 6.86a2.7 2.7 0 112.7-2.7 2.7 2.7 0 01-2.7 2.7z" fill="#ffffff"></path><circle cx="16.32" cy="7.68" r=".97" fill="#ffffff"></circle></svg>