<svg xmlns="http://www.w3.org/2000/svg" width="24" height="24" viewBox="0 0 24 24"><path d="M12 5.28s-4 0-6.69.19a2.7 2.7 0 00-1.91.81 4.06 4.06 0 00-.76 1.9 28.89 28.89 0 00-.19 3.09v1.45a29.2 29.2 0 00.19 3.1 4 4 0 00.76 1.89 3.18 3.18 0 002.1.82c1.53.15 6.5.19 6.5.19s4 0 6.69-.2a2.66 2.66 0 001.91-.81 4 4 0 00.76-1.89 29.2 29.2 0 00.19-3.1v-1.45a28.89 28.89 0 00-.19-3.09 4.06 4.06 0 00-.76-1.9 2.7 2.7 0 00-1.91-.81C16 5.28 12 5.28 12 5.28zM9.68 8.75l5.86 3.05-5.86 3z" fill="#ffffff"></path></svg>