<svg width="1250" height="420" viewBox="0 0 1250 420" fill="none" xmlns="http://www.w3.org/2000/svg">
<style>
  rect, path { fill: #444 }
  @media (prefers-color-scheme: dark) {
    rect, path { fill: #fff }
  }
</style>
<g clip-path="url(#clip0_298_2)">
<path d="M592.274 235.226C587.071 239.649 582.644 244.755 577.086 247.789C565.293 254.225 552.174 247.429 548.95 234.45C544.665 217.204 548.95 201.166 554.951 185.225C559.666 172.698 567.214 161.888 576.398 152.518C584.264 144.492 593.879 138.83 605.964 138.915C612.598 138.961 616.712 142.899 621.374 148.016C623.951 138.984 630.761 141.079 636.721 141.011C641.617 140.956 646.514 141 652.022 141C641.748 169.044 628.646 194.978 622.245 223.532C630.207 225.293 632.723 219.917 636.027 215.759C649.693 198.564 655.861 177.75 663.954 157.872C665.883 153.132 667.328 148.195 669.259 143.457C669.688 142.405 671.215 141.139 672.27 141.109C679.406 140.902 686.551 141.001 694.226 141.001C693.22 145.891 692.301 150.363 691.621 153.671C697.218 149.69 703.229 144.982 709.668 140.96C716.006 137.002 727.889 138.112 732.251 144.911C734.083 147.766 735.466 151.262 735.879 154.611C737.427 167.172 732.754 178.437 728.115 189.769C724.241 199.234 721.015 208.975 717.845 218.706C717.26 220.501 718.311 222.83 718.608 224.913C720.546 224.288 723.347 224.268 724.281 222.938C729.44 215.586 735.442 208.433 738.716 200.237C744.332 186.177 749.314 171.915 759.051 160.078C768.221 148.929 778.73 139.637 794.29 139.003C799.307 138.799 803.496 140.479 806.871 144.309C807.977 145.564 809.536 146.419 811.489 147.92C812.117 141.922 815.309 140.636 820.012 140.93C824.992 141.242 830.007 140.964 835.006 141.021C836.552 141.039 838.096 141.312 840.094 141.514C829.021 171.229 818.206 200.251 807.392 229.274C817.822 222.473 824.703 212.922 829.709 202.401C837.403 186.229 843.968 169.52 851.023 153.043C852.411 149.802 853.628 146.456 855.37 143.413C856.039 142.243 857.934 141.144 859.301 141.106C867.111 140.889 874.93 141.001 883.742 141.001C880.466 149.113 877.31 156.581 874.422 164.152C868.149 180.6 861.996 197.093 855.834 213.583C854.484 217.197 853.495 221.811 857.131 223.696C861.329 225.871 865.409 221.971 867.342 218.835C873.056 209.564 878.314 199.943 882.905 190.066C889.184 176.558 895.155 162.863 900.319 148.9C902.844 142.073 906.478 140.113 913.266 140.871C918.925 141.502 924.711 141 931.578 141C927.062 152.057 922.931 161.852 919.053 171.747C913.855 185.009 908.83 198.339 903.794 211.664C903.118 213.454 902.471 215.377 902.433 217.251C902.389 219.395 903.041 221.554 903.391 223.706C905.669 223.218 908.864 223.506 910.055 222.098C913.781 217.696 917.358 212.952 919.882 207.796C924.666 198.022 928.279 187.672 933.112 177.925C939.223 165.601 947.202 154.587 958.349 146.107C968.199 138.614 982.301 136.619 989.807 141.037C992.44 142.587 994.555 145.015 996.864 147.006C997.265 146.847 997.75 146.8 997.815 146.609C999.625 141.285 1003.6 140.578 1008.6 140.907C1014.56 141.3 1020.57 141 1027.34 141C1018.29 168.813 1003.57 194.312 999.217 223.49C1006.52 225.25 1009.25 219.939 1011.64 216.422C1023.24 199.397 1032.33 181.009 1040.27 161.971C1042.33 157.054 1042.36 153.721 1039.91 149.311C1032.12 135.299 1042.74 116.464 1055.5 113.737C1063.25 112.082 1068.39 114.964 1067.87 122.832C1067.45 129.188 1065.91 135.47 1064.9 141.549C1070.62 141.997 1077.06 142.043 1083.35 143.086C1097.63 145.457 1098.01 153.919 1095.13 163.921C1092.38 173.506 1086.2 182.051 1082.37 191.399C1078.69 200.391 1075.91 209.775 1073.17 219.113C1072.72 220.628 1074.03 223.701 1075.38 224.392C1076.58 225.01 1079.32 223.772 1080.77 222.601C1089.31 215.721 1094.23 206.262 1097.92 196.287C1104.39 178.824 1111.93 162.112 1126.14 149.382C1133.01 143.229 1140.92 138.91 1150.21 138.084C1157.41 137.444 1163.64 140.024 1168.33 145.894C1174.51 130.388 1180.58 115.156 1186.92 99.2392C1181.58 98.14 1176.05 96.9996 1169.37 95.6228C1186.11 80.7886 1202.34 66.4039 1219.31 51.3616C1222.42 73.33 1225.41 94.4336 1228.46 116.002C1222.06 115.753 1217.69 110.698 1211.85 108.261C1208.57 116.768 1205.3 125.264 1202.03 133.76C1193.7 155.429 1185.24 177.054 1177.09 198.796C1174.63 205.38 1172.9 212.255 1171.13 219.077C1170.79 220.409 1171.44 222.929 1172.4 223.435C1173.65 224.091 1176.28 223.915 1177.25 222.986C1181.31 219.092 1185.53 215.159 1188.66 210.541C1194.06 202.57 1198.87 194.178 1203.58 185.767C1206.03 181.395 1209.73 178.308 1214.21 178.319C1219.05 178.332 1223.8 181.002 1225.52 186.138C1227.41 191.737 1229.35 197.518 1229.85 203.341C1231.46 222.056 1227.7 240.078 1219.45 256.775C1213.05 269.734 1204.39 281.242 1193.01 290.704C1182.86 299.146 1172.37 306.85 1160.3 312.211C1145 319.015 1129.08 323.995 1112.59 326.973C1094.51 330.24 1076.31 332.38 1057.87 332.073C1050.96 331.958 1044.03 332.974 1037.12 332.93C1026.03 332.858 1014.94 332.439 1003.86 331.972C990.852 331.424 977.841 330.826 964.85 329.961C947.167 328.783 929.499 327.368 911.829 325.985C899.903 325.052 887.982 324.053 876.068 322.986C861.889 321.716 847.722 320.321 833.546 319.026C828.969 318.609 824.381 318.275 819.792 318.012C806.3 317.238 792.805 316.52 778.398 315.729C779.883 313.27 781.208 311.223 782.387 309.096C788.214 298.592 794.225 288.181 799.707 277.498C802.425 272.202 804.41 271.039 810.549 272.146C817.585 273.416 824.727 274.115 831.832 274.991C842.827 276.347 853.824 277.684 864.83 278.947C871.486 279.711 878.167 280.252 884.823 281.016C895.829 282.279 906.815 283.718 917.826 284.94C927.896 286.058 937.99 286.955 948.067 288.008C960.406 289.298 972.736 290.672 985.075 291.959C989.151 292.385 993.237 292.78 997.329 292.977C1012.33 293.699 1027.33 294.363 1042.34 294.989C1051.75 295.382 1061.21 296.329 1070.59 295.847C1085.28 295.091 1099.92 293.2 1114.6 292.044C1129.22 290.893 1143.14 286.789 1156.76 281.855C1168.14 277.733 1178.59 271.705 1187.91 263.694C1202.75 250.926 1210.68 234.318 1214.79 215.751C1216.03 210.16 1214.98 204.062 1214.98 198.197C1214.23 197.976 1213.48 197.756 1212.72 197.536C1211.48 199.395 1210.09 201.174 1209.01 203.127C1201.82 216.201 1194.56 229.275 1183.67 239.72C1175.93 247.139 1166.95 251.382 1155.81 248.024C1148.66 245.87 1146.1 240.023 1144.02 233.742C1143.83 233.189 1143.75 232.603 1143.41 231.107C1139.85 235.036 1136.93 238.503 1133.75 241.702C1126.8 248.682 1114.44 252.204 1105.28 246.061C1099.19 241.978 1097.1 235.681 1095.61 229.511C1089.75 234.841 1084.29 240.844 1077.84 245.453C1064.16 255.214 1046.64 247.937 1044.69 230.923C1043.36 219.301 1046.15 209.077 1050.6 199.087C1056.09 186.785 1062.55 174.916 1069.06 161.931C1064.94 161.213 1060.71 160.477 1056.64 159.767C1049.93 173.894 1043.84 187.72 1036.88 201.097C1029.26 215.765 1020.99 230.114 1008.82 241.726C1002.45 247.797 994.891 250.012 986.378 248.936C979.433 248.058 973.527 240.395 973.008 232.171C972.95 231.264 973 230.349 973.754 230.574C968.204 235.526 963.003 240.955 957.031 245.332C944.357 254.618 929.735 248.997 925.468 234.983C924.959 233.311 924.269 231.693 923.429 229.415C919.72 233.356 916.362 237.07 912.845 240.626C907.369 246.162 901.008 249.419 892.871 249.079C884.419 248.725 879.476 245.41 876.59 237.128C875.903 235.157 875.254 233.174 874.276 230.268C872.322 232.817 870.925 235.292 868.929 237.109C864.744 240.919 860.779 246.052 855.769 247.654C843.901 251.449 832.085 249.856 827.454 231.943C826.675 232.089 825.639 231.965 825.134 232.425C816.456 240.336 807.268 247.801 799.444 256.491C795.11 261.306 792.602 268.005 790.111 274.192C784.112 289.089 776.848 303.161 764.54 313.82C754.201 322.773 742.442 327.879 728.496 322.956C718.099 319.286 713.952 309.755 714.831 300.281C716.283 284.63 727.012 275.811 738.709 268.26C746.985 262.918 756.28 259.07 765.351 255.077C770.333 252.884 772.362 249.049 774.427 243.399C766.658 247.197 759.867 251.056 751.694 248.064C743.583 245.094 739.426 239.127 737.517 230.402C733.388 234.739 729.877 239.045 725.74 242.628C719.13 248.356 711.349 251.211 702.577 248.771C695.082 246.686 690.737 239.239 690.015 230.361C688.77 215.061 694.892 201.574 700.495 187.938C702.865 182.169 705.064 176.298 706.777 170.313C707.243 168.684 705.991 166.231 704.845 164.65C704.428 164.075 701.445 164.382 700.625 165.238C696.194 169.859 691.426 174.357 687.968 179.674C677.125 196.349 671.149 215.283 663.984 233.65C663.519 234.843 662.876 235.966 662.387 237.151C657.91 247.998 657.915 248 646.446 248C641.456 248 636.465 248 630.997 248C631.289 246.268 631.533 244.816 631.944 242.371C624.802 247.904 617.42 250.64 609.04 248.521C599.673 246.152 598.135 238.27 596.499 229.663C594.983 231.694 593.76 233.332 592.274 235.226ZM972.004 163.496C967.2 171.62 961.919 179.506 957.719 187.931C952.993 197.409 950.166 207.647 951.213 218.386C951.408 220.388 954.644 223.843 955.994 223.625C958.948 223.15 962.394 221.377 964.231 219.031C974.723 205.628 981.658 190.265 986.751 174.164C988.375 169.029 989.927 163.002 985.482 158.376C979.682 156.393 976.385 160.402 972.004 163.496ZM1128.33 223C1130.31 222.065 1132.95 221.644 1134.17 220.1C1138.13 215.053 1142.06 209.866 1145.1 204.243C1151.79 191.871 1158.13 179.243 1160.76 165.268C1161.17 163.098 1159.56 159.776 1157.8 158.234C1156.57 157.159 1153.01 157.434 1151.29 158.45C1141.29 164.34 1135.5 173.963 1131.21 184.172C1127.64 192.654 1125.62 201.804 1123.14 210.721C1121.73 215.794 1124.07 221.816 1128.33 223ZM600.718 160.843C584.897 175.859 577.318 194.573 576.03 216.072C575.86 218.923 575.369 222.79 579.044 223.249C581.557 223.562 585.165 222.227 586.921 220.352C600.25 206.124 607.891 188.806 611.82 170.002C613.928 159.916 609.829 156.769 600.718 160.843ZM765.002 208.87C765.001 212.203 764.819 215.549 765.056 218.865C765.265 221.801 766.389 225.086 770.013 223.793C773.296 222.622 777.056 220.566 778.821 217.773C784.464 208.84 789.727 199.597 794.26 190.057C797.536 183.163 799.864 175.715 801.679 168.286C802.336 165.598 801.149 161.194 799.164 159.545C797.707 158.334 793.054 159.536 790.742 161.057C783.994 165.497 779.207 171.968 776.064 179.322C772.045 188.722 768.675 198.399 765.002 208.87ZM761 277.454C761.673 275.755 762.346 274.056 763.491 271.165C756.318 275.316 749.866 278.303 744.335 282.503C740.417 285.479 737.324 289.837 734.718 294.101C733.652 295.846 734.375 299.143 735.216 301.385C735.585 302.368 738.775 303.388 739.837 302.817C743.433 300.881 747.408 298.837 749.845 295.738C754.099 290.33 757.319 284.107 761 277.454ZM1065 315.59C1063.84 310.075 1059.81 314.497 1057.33 312.809C1057.33 315.902 1057.33 318.401 1057.33 320.709C1060.05 320.709 1062.44 320.709 1065 320.709C1065 319.125 1065 317.83 1065 315.59ZM1089.29 307.058C1086.9 307.058 1084.51 307.058 1082.28 307.058C1082.28 310.025 1082.28 312.413 1082.28 314.761C1084.95 314.761 1087.33 314.761 1089.94 314.761C1089.94 312.259 1089.94 309.991 1089.29 307.058ZM1118 309.539C1118.07 310.956 1118.14 312.374 1118.21 313.769C1120.93 313.769 1123.32 313.769 1125.81 313.769C1125.81 311.153 1125.81 308.769 1125.81 305.706C1123.19 307.505 1119.15 303.064 1118 309.539ZM1139.66 297.004C1138.93 299.549 1138.19 302.094 1137.44 304.688C1141.09 304.688 1143.48 304.688 1145.73 304.688C1145.73 301.982 1145.73 299.594 1145.73 297C1143.83 297 1142.21 297 1139.66 297.004Z" fill="white"/>
<path d="M112.069 341.08C104.936 341.08 97.8036 341.08 89.9948 341.08C89.9948 337.494 89.9948 334.142 90.428 330.393C94.1252 329.996 97.3893 329.996 100.637 329.996C100.637 326.061 100.637 322.555 100.637 319.337C96.8745 319.337 93.4795 319.337 90.069 319.337C90.069 323.142 90.069 326.611 90.069 330.08C69.9074 330.08 49.7459 330.08 29.5843 330.08C29.4874 329.792 29.3905 329.504 29.2936 329.216C35.5478 326.818 41.6874 324.044 48.0786 322.094C64.6413 317.043 81.2148 311.969 97.9715 307.627C115.883 302.986 133.953 298.906 152.058 295.078C168.023 291.703 184.088 288.743 200.192 286.107C213.027 284.007 225.986 282.667 238.892 281C254.387 278.999 269.865 276.854 285.386 275.077C294.182 274.069 303.052 273.722 311.881 272.989C327.389 271.701 342.888 270.294 358.4 269.041C364.472 268.55 370.564 268.235 376.653 268.023C388.401 267.613 400.151 267.238 411.904 267.021C433.819 266.615 455.735 266.261 477.652 266.05C483.217 265.996 488.814 266.345 494.342 266.979C495.858 267.153 497.749 268.733 498.503 270.172C506.643 285.704 516.145 300.28 527.846 313.388C529.894 315.682 531.709 318.185 533.851 320.865C532.959 321.269 532.172 321.9 531.345 321.957C520.682 322.686 509.991 323.09 499.352 324.067C488.157 325.095 477.02 326.731 465.841 327.953C455.605 329.071 445.325 329.805 435.106 331.049C423.01 332.52 410.934 334.203 398.893 336.076C387.384 337.866 375.882 339.771 364.467 342.071C349.148 345.158 333.833 348.338 318.667 352.09C301.377 356.367 284.118 360.871 267.088 366.071C236.374 375.45 206.531 387.133 178.019 402.027C174.773 403.723 171.725 405.797 168.243 407.902C168.243 400.519 168.243 393.506 168.243 386.095C171.695 386.095 175.112 386.095 178.758 386.095C178.758 382.3 178.758 378.893 178.758 375.088C175.301 375.088 171.882 375.088 167.995 375.088C167.995 371.099 167.995 367.485 168.428 363.433C172.125 362.995 175.389 362.995 178.637 362.995C178.637 359.061 178.637 355.556 178.637 352.337C174.875 352.337 171.48 352.337 168.069 352.337C168.069 356.142 168.069 359.611 168.069 363.08C162.837 363.08 157.605 363.08 151.995 363.08C151.995 360.085 151.995 356.474 152.428 352.429C156.125 351.995 159.389 351.995 162.637 351.995C162.637 348.061 162.637 344.556 162.637 341.337C158.875 341.337 155.48 341.337 152.069 341.337C152.069 345.142 152.069 348.611 152.069 352.08C141.363 352.386 130.659 352.779 119.951 352.972C112.003 353.115 112.001 352.999 112 345.349C112 344.187 111.997 343.025 112.428 341.43C116.116 340.996 119.371 340.996 123 340.996C123 338.843 123 337.072 123 335.301C123 333.561 123 331.821 123 330.108C111.893 329.801 111.893 329.801 112.007 340.093C112.011 340.422 112.048 340.751 112.069 341.08ZM197.36 375C198.239 374.393 199.814 373.851 199.877 373.169C200.154 370.15 199.997 367.092 199.997 364.319C195.891 364.319 192.508 364.319 189.279 364.319C189.279 368.026 189.279 371.409 189.279 375C191.838 375 194.122 375 197.36 375ZM138.551 330C140.627 330 142.703 330 144.764 330C144.764 326.061 144.764 322.682 144.764 319.196C141.147 319.196 137.77 319.196 134 319.196C134 321.811 134.21 324.26 133.947 326.658C133.617 329.678 134.995 330.398 138.551 330Z" fill="white"/>
<path d="M279.986 149.269C281.419 157.303 282.84 164.918 284.083 171.575C292.252 162.397 300.714 152.557 309.56 143.076C314.963 137.285 323.095 136.318 329.027 140.004C332.727 142.302 332.704 145.742 329.74 148.924C320.209 159.153 310.83 169.527 301.581 180.011C297.829 184.265 294.751 189.112 290.997 193.364C289.21 195.389 288.905 196.764 289.875 199.358C292.437 206.205 294.132 213.381 296.764 220.197C299.61 227.565 305.625 224.702 308.939 220.154C316.323 210.018 319.895 198.132 324.043 186.496C329.702 170.62 338.264 156.647 352.067 146.459C362.073 139.073 373.257 136.625 385.514 138.985C391.103 140.062 398.105 147.428 399.012 153.295C402.056 172.977 392.463 186.545 377.23 196.852C369.298 202.218 360.16 205.189 350.332 204.974C346.518 204.891 345.153 206.159 346.508 210.042C347.969 214.233 348.607 218.759 350.425 222.766C352.851 228.111 365.248 227.937 371.24 225.369C380.668 221.329 386.991 213.971 392.983 206.156C403.134 192.917 407.564 176.94 413.899 161.908C422.232 142.137 429.977 122.118 437.982 102.209C440.971 94.7756 444.194 87.4269 446.876 79.885C447.897 77.0125 449.266 75.9339 452.155 75.9692C459.665 76.0609 467.178 76 475.608 76C469.031 92.5164 462.951 107.52 457.076 122.604C449.638 141.703 442.295 160.841 435.05 180.014C431.035 190.637 427.269 201.356 423.475 212.061C422.78 214.02 422.003 216.161 422.158 218.149C422.308 220.068 423.146 222.756 424.545 223.515C425.828 224.211 429.086 223.427 430.056 222.186C435.926 214.677 441.519 206.939 446.929 199.088C449.287 195.665 450.707 191.589 453.117 188.212C454.204 186.689 457.218 184.923 458.389 185.444C460.337 186.31 463.065 189.289 462.731 190.752C461.25 197.225 459.732 204.012 456.483 209.687C450.895 219.448 444.516 228.87 437.521 237.681C430.811 246.132 421.616 250.598 410.37 248.964C403.262 247.93 396.163 239.708 394.979 231.529C394.806 230.335 394.353 229.181 393.745 226.974C390.766 229.868 388.436 232.108 386.132 234.375C380.179 240.229 373.465 244.586 365.407 247.352C347.253 253.581 327.007 247.504 320.948 228.124C316.192 233.353 311.819 239.663 306.051 244.199C293.088 254.392 277.614 249.03 271.012 232.706C269.831 229.787 268.694 226.851 267.375 223.512C262.714 229.872 257.939 235.536 254.12 241.784C247.484 252.641 233.754 252.466 227.594 242.724C235.848 233.105 243.918 223.716 251.965 214.308C253.34 212.701 254.601 210.996 255.948 209.363C260.462 203.891 262.435 198.066 259.127 191.142C258.487 189.803 259.035 187.896 259.035 186.251C258.584 186.011 258.132 185.772 257.68 185.532C256.579 187.079 255.292 188.526 254.407 190.188C248.222 201.799 242.872 213.943 235.734 224.928C230.752 232.595 224.159 239.763 216.853 245.245C205.694 253.618 189.38 249.644 185.903 232.981C183.416 221.066 186.523 210.004 190.492 199.295C197.501 180.381 205.434 161.809 213.093 143.14C213.476 142.205 214.907 141.114 215.868 141.097C223.696 140.96 231.527 141.049 239.357 141.128C239.741 141.132 240.119 141.687 240.846 142.255C235.96 154.612 230.845 166.981 226.178 179.517C221.657 191.66 217.572 203.967 213.376 216.229C212.963 217.436 212.864 218.876 213.066 220.135C213.291 221.528 213.862 223.856 214.579 223.975C216.139 224.232 218.439 223.876 219.456 222.824C222.612 219.556 225.984 216.201 228.066 212.246C236.288 196.627 244.888 181.11 251.559 164.822C254.145 158.505 251.981 150.244 251.981 142.008C252.873 141.821 254.809 141.157 256.774 141.055C260.43 140.864 264.103 141 267.769 141C276.74 141 276.74 141 279.986 149.269ZM374.532 173.983C376.022 169.487 378.117 165.085 378.828 160.47C379.525 155.942 377.635 155.13 373.312 156.922C365.115 160.32 361.006 167.535 356.93 174.623C354.051 179.629 351.898 185.054 349.42 190.291C349.875 190.623 350.329 190.955 350.783 191.287C360.607 188.744 368.936 184.014 374.532 173.983Z" fill="white"/>
<path d="M89.2606 88.2421C72.6076 100.22 60.6262 114.849 56.9146 135.361C55.0417 145.711 56.266 154.976 63.5018 162.983C63.836 163.352 64.2304 163.668 64.5646 164.038C66.3428 166.005 71.1979 165.634 69.864 169.824C68.5423 173.976 65.862 177.193 61.4437 179.078C46.784 185.333 30.2391 175.46 24.9711 159.479C18.1545 138.801 23.7853 120.282 34.7507 102.815C52.6779 74.2593 79.4118 57.9506 111.279 49.4511C123.745 46.1264 136.64 44.1283 149.61 45.1111C162.472 46.0859 175.067 48.2617 186.661 54.862C201.231 63.156 209.492 75.8813 212.824 91.6235C216.314 108.115 213.936 124.277 206.759 139.679C197.734 159.047 184.556 174.806 166.347 186.074C151.846 195.049 136.226 201.17 119.116 203.004C116.2 203.317 113.233 203.437 110.398 204.106C109.138 204.404 107.554 205.628 107.126 206.8C101.31 222.745 95.6984 238.765 89.9782 254.745C86.6875 263.939 83.308 273.101 79.9364 282.265C78.2667 286.803 75.203 287.942 70.033 287.107C62.9009 285.955 57.431 282.264 52.6763 277.166C50.3054 274.624 49.3491 272.118 50.8388 268.372C58.4105 249.332 65.5891 230.136 73.0125 211.036C80.6111 191.486 88.1759 171.92 96.0519 152.482C102.417 136.771 108.824 121.053 115.948 105.679C122.874 90.7329 131.352 88.4075 147.281 87.0984C149.369 86.9267 151.568 88.089 154.102 88.7314C142.05 118.172 130.207 147.103 118.364 176.034C118.699 176.559 119.034 177.084 119.368 177.609C124.207 176.401 129.338 175.856 133.837 173.875C159.749 162.466 176.078 143.325 181.119 114.924C182.847 105.184 181.829 96.1072 177.047 87.7231C171.394 77.8131 161.758 73.8809 150.971 71.9641C134.792 69.0892 119.78 73.2112 105.188 79.4671C99.75 81.7986 94.7344 85.116 89.2606 88.2421Z" fill="white"/>
<path d="M542.268 129.308C553.665 108.353 564.452 87.4885 576.136 67.1392C583.203 54.8316 591.989 43.5907 602.574 33.9261C612.598 24.774 624.037 18.5418 637.699 17.0218C650.364 15.6127 661.83 23.5981 663.745 35.9581C664.341 39.7998 662.443 44.1262 661.199 48.077C660.928 48.9359 657.715 49.9544 657.295 49.517C650.869 42.8369 643.461 45.822 637.298 48.5946C628.529 52.5395 621.09 58.7 614.26 65.8981C602.616 78.1695 593.687 92.1883 585.073 106.5C577.861 118.482 570.858 130.597 564.057 142.818C554.456 160.072 545.024 177.422 535.717 194.837C528.981 207.44 522.59 220.227 515.997 232.906C512.732 239.187 509.195 245.333 506.094 251.692C504.347 255.277 500.936 256.629 498.137 255.763C491.314 253.651 484.25 251.294 478.438 247.338C475.121 245.079 472.482 239.552 472.322 235.39C471.959 225.926 473.248 216.391 473.995 206.895C474.559 199.721 475.175 192.544 476.037 185.401C477.167 176.043 478.909 166.747 479.71 157.367C480.165 152.038 479.357 146.586 478.883 141.211C478.813 140.42 477.372 139.075 476.679 139.143C474.691 139.339 471.846 139.504 470.967 140.792C467.052 146.527 464.815 152.866 466.473 160.051C467.163 163.038 467.804 166.093 467.929 169.138C468.121 173.777 464.163 176.218 459.88 174.391C455.43 172.492 452.972 168.703 452.245 164.346C449.887 150.228 453.487 136.053 467.125 125.908C476.489 118.941 486.16 116.036 496.744 122.151C499.759 123.893 502.574 127.282 503.821 130.549C507.921 141.293 506.537 152.492 505.146 163.589C504.094 171.99 503.108 180.399 501.981 188.789C501.074 195.542 499.977 202.269 499.027 209.016C498.899 209.931 499.139 210.898 499.209 211.84C499.694 212.036 500.18 212.232 500.666 212.428C514.456 184.824 528.246 157.22 542.268 129.308Z" fill="white"/>
<path d="M670.753 331.743C654.729 344.944 637.84 356.163 619.346 364.824C617.676 365.606 614.925 365.35 613.185 364.515C595.381 355.961 579.024 345.064 563.485 332.94C542.113 316.266 525.175 295.825 511.906 272.203C509.457 267.842 507.511 264.965 511.973 260.259C516.5 255.483 519.388 249.152 522.961 243.553C525.824 249.076 528.949 255.012 531.99 260.991C537.7 272.216 545.32 282.042 553.772 291.307C568.9 307.891 586.18 321.778 605.493 333.181C606.612 333.842 607.36 335.133 608.481 335.786C613.506 338.715 618.043 340.82 623.906 336.172C634.906 327.449 647.013 320.117 657.958 311.332C674.941 297.702 689.157 281.408 701.043 263.115C701.646 262.187 703.192 260.902 703.847 261.123C711.624 263.75 718.394 260.021 725.444 258.026C726.055 257.853 726.759 258.003 728.563 258.003C726.338 260.977 724.879 263.633 722.78 265.609C713.829 274.042 708.155 284.343 703.789 295.737C702.003 300.401 698.49 304.673 694.95 308.34C687.247 316.322 679.022 323.8 670.753 331.743Z" fill="white"/>
<path d="M753.981 78.323C754.332 86.7778 755.207 94.7799 754.877 102.732C754.343 115.559 753.151 128.365 751.963 141.154C751.416 147.049 750.222 152.883 748.23 158.725C747.168 154.937 746.022 151.171 745.062 147.357C743.436 140.893 739.8 135.992 734.105 132.542C731.991 131.261 730.724 129.691 730.904 126.754C731.417 118.406 731.662 110.03 731.667 101.665C731.672 93.7943 731.375 85.9135 730.843 78.0619C730.769 76.9699 728.688 75.2952 727.369 75.1141C707.217 72.3486 687.709 66.9561 668.336 60.9802C667.285 60.6559 666.295 60.1333 666.415 60.1843C669.48 53.4514 672.549 46.7077 675.561 40.091C699.991 45.565 725.776 51.3424 751.709 57.1533C752.41 63.578 753.187 70.7129 753.981 78.323Z" fill="white"/>
<path d="M559.327 62.2753C540.967 66.6752 522.928 70.7746 504.954 75.1422C503.72 75.4421 502.207 77.7034 502.124 79.1285C501.555 88.8656 501.349 98.6237 500.978 108.373C500.937 109.44 500.59 110.495 500.56 110.651C492.882 109.865 485.713 109.131 477.878 108.329C478.233 104.344 478.753 100.023 478.975 95.6865C479.457 86.306 480.169 76.9141 480.08 67.5335C479.97 55.8828 479.934 55.9268 491.614 53.932C507.526 51.2144 523.592 48.8896 539.146 44.7299C557.632 39.7862 575.645 33.0743 593.655 27.1962C593.591 27.3068 593.253 28.0911 592.741 28.7368C585.162 38.2899 577.838 48.069 569.786 57.2074C567.513 59.7878 563.097 60.4804 559.327 62.2753Z" fill="white"/>
<path d="M227.726 101.765C232.367 98.1405 236.758 95.2226 242.816 96.9162C250.096 98.9515 253.984 104.291 252.991 111.55C251.605 121.68 247.608 126.19 237.922 128.551C231.944 130.008 223.617 124.191 223.019 118.032C222.449 112.158 223.643 106.717 227.726 101.765Z" fill="white"/>
<path d="M142 379.927C142.398 383.005 141.678 384.383 138.658 384.053C136.26 383.79 133.811 384 131.196 384C131.196 380.23 131.196 376.853 131.196 373.236C134.683 373.236 138.062 373.236 142 373.236C142 375.297 142 377.373 142 379.927Z" fill="white"/>
<path d="M80 357.927C80.3982 361.005 79.678 362.383 76.6583 362.053C74.2568 361.79 71.8037 362 69.1956 362C69.1956 358.23 69.1956 354.853 69.1956 351.236C72.6823 351.236 76.0615 351.236 80 351.236C80 353.297 80 355.373 80 357.927Z" fill="white"/>
</g>
<defs>
<clipPath id="clip0_298_2">
<rect width="1250" height="420" fill="white"/>
</clipPath>
</defs>
</svg>
